<?xml version="1.0" encoding="UTF-8"?>
<svg width="1237px" height="228px" viewBox="0 0 1237 228" version="1.1" xmlns="http://www.w3.org/2000/svg" xmlns:xlink="http://www.w3.org/1999/xlink">
    <title>ZNOJMOPROJEKT</title>
    <g id="Page-1" stroke="none" stroke-width="1" fill="none" fill-rule="evenodd">
        <g id="ZNOJMOPROJEKT" fill="#242424" fill-rule="nonzero">
            <path d="M319.445835,0 L329.068,46.909 L330.68888,38.2512627 L332.501596,38.2512627 L335.888765,74.2512627 L329.292,74.111 L329.291893,107 L375.999893,107 L376,100.251263 L393,100.251263 L392.999893,107 L459.999893,107 L460,97.2512627 L552,97.2512627 L551.999893,107 L566.999893,107 L567,97.2512627 L638.999893,97.251 L639,92.2512627 L709,92.2512627 L708.999893,104.251 L716.999893,104.251 L717,84.0832627 L711,84.2512627 L713.564146,48.2512627 L714.936402,48.2512627 L717,62.8212627 L717,48.2512627 L717.858,43.1872627 L715,43.2512627 L716.880374,22.2512627 L717.886695,22.2512627 L719.689,32.3762627 L725.131683,0.251262658 L728.182806,0.251262658 L732.552,31.0162627 L734.113305,22.2512627 L735.119626,22.2512627 L737,43.2512627 L734.281,43.1902627 L735,48.2512627 L735,62.8172627 L737.063598,48.2512627 L738.435854,48.2512627 L741,84.2512627 L735,84.0832627 L734.999893,99.251 L773.999893,99.251 L773.999357,94.5499243 C768.422963,93.5163844 764.2,88.6269865 764.2,82.7512627 C764.2,76.1238457 769.572583,70.7512627 776.2,70.7512627 C776.811654,70.7512627 777.41262,70.7970249 777.999661,70.8853122 L777.999402,61.1011142 C774.57634,60.4059777 772,57.3794884 772,53.7512627 C772,49.6091271 775.357864,46.2512627 779.5,46.2512627 C780.132675,46.2512627 780.747053,46.3296014 781.333964,46.4771078 L784.421122,28.2512627 L786.455204,28.2512627 L789.031059,46.3950541 C789.506085,46.3007269 789.997266,46.2512627 790.5,46.2512627 C794.642136,46.2512627 798,49.6091271 798,53.7512627 C798,57.379843 795.423157,60.4065693 791.999594,61.1013179 L791.999335,70.8854631 C792.586695,70.797077 793.187997,70.7512627 793.8,70.7512627 C800.427417,70.7512627 805.8,76.1238457 805.8,82.7512627 C805.8,88.627338 801.576532,93.5169695 795.999642,94.5501098 L795.999893,99.251 L852.999893,99.251 L853,92.2512627 L917,92.2512627 L916.999893,99.251 L956,99.2512627 L955.999893,107 L976.15,107 L976.150758,98.2512627 L991,83.2512627 L1005.84776,98.2502627 L1005.849,118.251 L1056.999,118.251 L1056.99916,93.0270757 C1053.5234,90.9251567 1051.2,87.1095394 1051.2,82.7512627 C1051.2,76.1905894 1056.46491,70.8596029 1063.00015,70.7528932 L1063,62.2512627 L1067.33618,40.1430198 L1068.26126,40.1430198 L1072,62.2512627 L1076.33618,40.1430198 L1077.26126,40.1430198 L1081,62.2512627 L1081,70.754 L1081.10497,70.7550626 C1087.59146,70.9168699 1092.8,76.225806 1092.8,82.7512627 C1092.8,86.6174856 1090.97161,90.0566656 1088.13234,92.251303 L1137,92.2512627 L1136.99989,102.251 L1184,102.251263 L1183.999,118.251 L1237,118.251263 L1237,227.251263 L0,227.251263 L0,118.251263 L53.292,118.251 L53.2928932,108.393399 L68.1421356,93.3933983 L82.9898932,108.392399 L82.991,118.251 L100,118.251 L100,109.251263 L111,98.2512627 L122,109.251263 L151,109.251263 L162,98.2512627 L173,109.251263 L173,118.251 L197.26,118.251 L206.568595,60.8578644 L215.155414,60.8578644 L222.786,118.251 L228.292,118.251 L228.292893,90 L241.01573,74 L284.722231,74 L297.112893,90 L303.291893,90 L303.292,74.118 L297,74.2512627 L300.38717,38.2512627 L302.199885,38.2512627 L303.706,46.307 L315.038657,0 L319.445835,0 Z M1220,135.251263 L16.999,135.251263 L16.999,210.251263 L1220,210.251263 L1220,135.251263 Z M747.824927,149.251761 C760.2713,149.272105 765.938041,149.919542 771.085366,151.999389 C776.853659,154.254262 779,157.566106 779,163.907935 C779,170.743017 777.390244,173.913932 772.963415,175.746016 L772.645646,175.880108 C770.474271,176.772766 768.243335,177.19464 762.231707,178.000888 L762.231707,178.494142 C773.231707,178.776001 778.597561,181.87645 778.329268,187.654561 L778.329268,196.251263 L753.914634,196.251263 L753.914634,189.979899 C754.182927,185.611083 750.963415,183.63807 743.853659,183.778999 L726.012195,183.778999 L726.012195,196.251263 L702,196.251263 L702,149.251263 L747.824927,149.251761 Z M1022.19018,149.251263 L1022.19018,159.609584 L981.159509,159.609584 L981.159509,168.065356 L1019.4908,168.065356 L1019.4908,176.732522 L981.159509,176.732522 L981.159509,185.892942 L1023,185.892942 L1023,196.251263 L957,196.251263 L957,149.251263 L1022.19018,149.251263 Z M435.538182,149.251263 L443.88,162.710034 C446.705455,167.219779 447.916364,169.333722 450.069091,173.138819 C451.010909,175.041368 451.952727,176.943917 453.029091,178.776001 L453.970909,178.776001 L455.989091,174.759509 C458.949091,168.910933 459.352727,168.065356 462.581818,162.780498 L470.654545,149.251263 L509,149.251263 L509,196.251263 L485.32,196.251263 L485.320513,181.693365 C485.321925,181.08469 485.326427,180.51873 485.336136,179.967933 L485.344428,179.557247 L485.354871,179.149664 L485.360684,178.955076 L485.374009,178.565126 C485.477941,175.76274 485.767611,172.735786 486.530909,165.740019 L487.069091,160.243767 L486.261818,160.243767 L483.167273,165.599089 L479.938182,170.954411 L473.210909,181.665056 L463.927273,196.251263 L443.341818,196.251263 L433.789091,181.594591 L426.927273,170.954411 C425.312727,168.206285 423.16,164.612582 420.469091,160.243767 L419.661818,160.243767 L420.334545,165.740019 C421.189998,173.580392 421.53554,176.836364 421.641343,179.823543 L421.653568,180.203757 L421.663313,180.583046 C421.664738,180.646295 421.666064,180.709588 421.667295,180.772967 L421.673656,181.162127 C421.676262,181.357597 421.678025,181.554665 421.679018,181.754523 L421.68,196.251263 L398,196.251263 L398,149.251263 L435.538182,149.251263 Z M942,149.251263 L942,180.794418 C942,187.928346 941.463203,189.327156 938.376623,191.635192 C935.692641,193.593525 931.532468,195.062275 927.238095,195.621799 C924.419913,196.041442 918.380952,196.251263 910.194805,196.251263 C895.4329,196.251263 889.930736,195.481918 885.367965,192.89412 C881.207792,190.376263 880,187.368823 880,179.535489 L880.000621,179.035221 C880.003728,178.233819 880.022367,177.553842 880.134199,176.388168 L902.411255,176.388168 L902.411962,179.981425 C902.442053,184.872651 903.457589,185.55037 910.194805,185.55037 C914.08658,185.55037 915.965368,185.130727 917.038961,184.151561 C917.844156,183.242334 917.844156,183.242334 917.978355,179.465549 L917.978355,149.251263 L942,149.251263 Z M1059.09077,149.251263 L1059.09077,167.078849 L1066.35837,167.078849 L1089.37246,149.251263 L1118.44288,149.251263 L1086.68075,172.363707 L1121,196.251263 L1091.52582,196.251263 L1066.49296,177.719029 L1059.09077,177.719029 L1059.09077,196.251263 L1035,196.251263 L1035,149.251263 L1059.09077,149.251263 Z M565.062549,149.251649 C576.947501,149.266114 583.044241,149.688512 588.227053,150.848013 C596.884058,152.791883 601.888889,156.054808 603.782609,160.983907 C604.729469,163.136049 605,166.537821 605,172.994247 C605,182.991293 604.05314,186.184793 599.724638,189.65599 C593.772947,194.515665 583.492754,196.251263 561.444444,196.251263 C547.376812,196.251263 540.342995,195.626448 534.52657,193.752002 C527.492754,191.530436 523.705314,188.614631 521.94686,184.102075 C521.293076,182.223001 521.018486,179.95469 521.000907,175.666672 L521.000907,174.684879 C521.02927,166.624122 521.713742,162.236492 523.434783,159.178885 C525.463768,155.291145 531.68599,152.167068 540.748792,150.500894 C545.524712,149.683827 552.642669,149.267438 563.761607,149.251649 L565.062549,149.251649 Z M1192,149.251263 L1192,160.032372 L1167.79545,160.032372 L1167.79545,196.251263 L1143.72538,196.251263 L1143.72538,160.032372 L1121,160.032372 L1121,149.251263 L1192,149.251263 Z M274.062549,149.251649 C285.947501,149.266114 292.044241,149.688512 297.227053,150.848013 C305.884058,152.791883 310.888889,156.054808 312.782609,160.983907 C313.729469,163.136049 314,166.537821 314,172.994247 C314,182.991293 313.05314,186.184793 308.724638,189.65599 C302.772947,194.515665 292.492754,196.251263 270.444444,196.251263 C256.376812,196.251263 249.342995,195.626448 243.52657,193.752002 C236.492754,191.530436 232.705314,188.614631 230.94686,184.102075 C230.293076,182.223001 230.018486,179.95469 230.000907,175.666672 L230.000907,174.684879 C230.02927,166.624122 230.713742,162.236492 232.434783,159.178885 C234.463768,155.291145 240.68599,152.167068 249.748792,150.500894 C254.524712,149.683827 261.642669,149.267438 272.761607,149.251649 L274.062549,149.251649 Z M833.062549,149.251649 C844.947501,149.266114 851.044241,149.688512 856.227053,150.848013 C864.884058,152.791883 869.888889,156.054808 871.782609,160.983907 C872.729469,163.136049 873,166.537821 873,172.994247 C873,182.991293 872.05314,186.184793 867.724638,189.65599 C861.772947,194.515665 851.492754,196.251263 829.444444,196.251263 C815.376812,196.251263 808.342995,195.626448 802.52657,193.752002 C795.492754,191.530436 791.705314,188.614631 789.94686,184.102075 C789.293076,182.223001 789.018486,179.95469 789.000907,175.666672 L789.000907,174.684879 C789.02927,166.624122 789.713742,162.236492 791.434783,159.178885 C793.463768,155.291145 799.68599,152.167068 808.748792,150.500894 C813.524712,149.683827 820.642669,149.267438 831.761607,149.251649 L833.062549,149.251649 Z M119,149.251263 L119,159.750513 L76.2715596,185.258759 L76.2715596,185.681548 L119,185.681548 L119,196.251263 L46,196.251263 L46,185.611083 L88.1926606,160.243767 L88.1926606,159.820978 L48.6788991,159.820978 L48.6788991,149.251263 L119,149.251263 Z M384,149.251263 L384,180.794418 C384,187.928346 383.463203,189.327156 380.376623,191.635192 C377.692641,193.593525 373.532468,195.062275 369.238095,195.621799 C366.419913,196.041442 360.380952,196.251263 352.194805,196.251263 C337.4329,196.251263 331.930736,195.481918 327.367965,192.89412 C323.207792,190.376263 322,187.368823 322,179.535489 L322.000621,179.035221 C322.003728,178.233819 322.022367,177.553842 322.134199,176.388168 L344.411255,176.388168 L344.411962,179.981425 C344.442053,184.872651 345.457589,185.55037 352.194805,185.55037 C356.08658,185.55037 357.965368,185.130727 359.038961,184.151561 C359.844156,183.242334 359.844156,183.242334 359.978355,179.465549 L359.978355,149.251263 L384,149.251263 Z M169.675676,149.251263 L184,169.051863 C185.891892,171.729524 187.783784,174.33672 189.810811,177.014381 C191.567568,179.692043 193.324324,182.369704 195.081081,184.9769 L196.027027,184.9769 L195.756757,180.749014 C195.232596,174.736021 195.089643,173.692443 195.081461,168.558886 L195.081081,149.251263 L219,149.251263 L219,196.251263 L178.054054,196.251263 L163.864865,176.450663 C161.972973,173.702537 159.945946,170.954411 158.054054,168.27675 L152.648649,160.032372 L151.567568,160.032372 L151.972973,164.401188 C152.498069,170.630273 152.640596,171.805683 152.648311,176.970837 L152.648649,196.251263 L129,196.251263 L129,149.251263 L169.675676,149.251263 Z M662.703921,149.251263 C672.513479,149.264795 675.991332,149.636209 681.546099,151.365206 C689.900709,153.901938 693,158.129824 693,167.149314 C693,173.984396 691.382979,177.507635 687.070922,180.255761 C684.241135,182.087845 678.716312,183.49714 673.056738,183.919929 C672.978809,183.923325 672.904636,183.926557 672.832695,183.929649 L672.726267,183.934185 C672.691223,183.935664 672.656545,183.937111 672.622046,183.938529 L672.518887,183.942699 L672.49313,183.943716 L672.31119,183.950586 L672.199437,183.954506 C672.180523,183.95515 672.161447,183.955788 672.142183,183.956423 L672.024105,183.960183 C670.796135,183.997956 668.661513,184.02304 659.446809,184.131323 L655.539007,184.201788 L641.120567,184.201788 L641.120567,196.251263 L617,196.251263 L617,149.251263 L662.703921,149.251263 Z M564.217723,159.873632 L563.743961,159.873124 C553.193237,159.873124 549.94686,160.428516 547.782609,162.650081 C546.294686,164.177408 545.888889,166.468397 545.888889,173.341366 C545.888889,184.681765 546.94948,185.543636 562.982969,185.559739 L563.945969,185.559431 C573.447903,185.537077 576.491663,184.823188 578.487923,182.227629 C579.84058,180.422607 580.246377,178.339889 580.246377,172.230584 C580.246377,165.843582 579.975845,164.38568 578.623188,162.719505 C576.760513,160.534359 573.589167,159.894039 564.217723,159.873632 Z M832.217723,159.873632 L831.743961,159.873124 C821.193237,159.873124 817.94686,160.428516 815.782609,162.650081 C814.294686,164.177408 813.888889,166.468397 813.888889,173.341366 C813.888889,184.681765 814.94948,185.543636 830.982969,185.559739 L831.945969,185.559431 C841.447903,185.537077 844.491663,184.823188 846.487923,182.227629 C847.84058,180.422607 848.246377,178.339889 848.246377,172.230584 C848.246377,165.843582 847.975845,164.38568 846.623188,162.719505 C844.760513,160.534359 841.589167,159.894039 832.217723,159.873632 Z M273.217723,159.873632 L272.743961,159.873124 C262.193237,159.873124 258.94686,160.428516 256.782609,162.650081 C255.294686,164.177408 254.888889,166.468397 254.888889,173.341366 C254.888889,184.681765 255.94948,185.543636 271.982969,185.559739 L272.945969,185.559431 C282.447903,185.537077 285.491663,184.823188 287.487923,182.227629 C288.84058,180.422607 289.246377,178.339889 289.246377,172.230584 C289.246377,165.843582 288.975845,164.38568 287.623188,162.719505 C285.760513,160.534359 282.589167,159.894039 273.217723,159.873632 Z M641.120567,159.609584 L641.120567,173.350214 L656.589338,173.349884 C667.024428,173.331244 668.340426,172.503807 668.340426,166.515131 C668.340426,162.498639 667.262411,160.87795 664.028369,160.102837 C663.56192,160.005271 663.167233,159.926467 662.774754,159.862962 L662.512665,159.822854 C661.371749,159.658544 660.120268,159.61549 657.081309,159.610178 L641.120567,159.609584 Z M726.012195,160.032372 L726.012195,173.138819 L745.060976,173.138819 C752.97561,173.138819 754.45122,172.011383 754.45122,165.669554 C754.45122,161.155664 752.808391,160.093572 744.616549,160.035001 L744.239665,160.033021 L726.012195,160.032372 Z" id="Combined-Shape"></path>
        </g>
    </g>
</svg>