<?xml version="1.0" encoding="utf-8"?>
<!-- Generator: Adobe Illustrator 27.2.0, SVG Export Plug-In . SVG Version: 6.00 Build 0)  -->
<svg version="1.1" id="Vrstva_1" xmlns="http://www.w3.org/2000/svg" xmlns:xlink="http://www.w3.org/1999/xlink" x="0px" y="0px"
     viewBox="0 0 1237 228" style="enable-background:new 0 0 1237 228;" xml:space="preserve">
<style type="text/css">
	.st0{fill-rule:evenodd;clip-rule:evenodd;}
	.st1{fill-rule:evenodd;clip-rule:evenodd;fill:#FFFFFF;}
	.st2{fill-rule:evenodd;clip-rule:evenodd;fill:#FF0000;}
</style>
    <g id="Retailer-MVP">
	<path class="st0" d="M319.4,0.7l9.6,46.9l1.6-8.7h1.8l3.4,36l-6.6-0.1l0,32.9H376l0-6.7h17l0,6.7h67l0-9.7h92l0,9.7h15l0-9.7l72,0
		l0-5h70l0,12h8l0-20.2l-6,0.2l2.6-36h1.4l2.1,14.6V49l0.9-5.1L715,44l1.9-21h1l1.8,10.1L725.1,1h3.1l4.4,30.8l1.6-8.8h1l1.9,21
		l-2.7-0.1L735,49v14.6l2.1-14.6h1.4l2.6,36l-6-0.2l0,15.2h39l0-4.7c-5.6-1-9.8-5.9-9.8-11.8c0-6.6,5.4-12,12-12
		c0.6,0,1.2,0,1.8,0.1l0-9.8c-3.4-0.7-6-3.7-6-7.3c0-4.1,3.4-7.5,7.5-7.5c0.6,0,1.2,0.1,1.8,0.2l3.1-18.2h2l2.6,18.1
		c0.5-0.1,1-0.1,1.5-0.1c4.1,0,7.5,3.4,7.5,7.5c0,3.6-2.6,6.7-6,7.4l0,9.8c0.6-0.1,1.2-0.1,1.8-0.1c6.6,0,12,5.4,12,12
		c0,5.9-4.2,10.8-9.8,11.8l0,4.7h57l0-7h64l0,7l39,0l0,7.7h20.2l0-8.7L991,84l14.8,15l0,20h51.2l0-25.2c-3.5-2.1-5.8-5.9-5.8-10.3
		c0-6.6,5.3-11.9,11.8-12l0-8.5l4.3-22.1h0.9L1072,63l4.3-22.1h0.9L1081,63v8.5l0.1,0c6.5,0.2,11.7,5.5,11.7,12
		c0,3.9-1.8,7.3-4.7,9.5l48.9,0l0,10l47,0l0,16l53,0v109H0V119l53.3,0l0-9.9l14.8-15l14.8,15l0,9.9h17v-9l11-11l11,11h29l11-11
		l11,11v9h24.3l9.3-57.4h8.6l7.6,57.4h5.5l0-28.3l12.7-16h43.7l12.4,16h6.2l0-15.9L297,75l3.4-36h1.8l1.5,8.1L315,0.7H319.4z"/>
        <rect x="17" y="136" class="st1" width="1203" height="75"/>
        <path class="st2" d="M747.8,150c12.4,0,18.1,0.7,23.3,2.7c5.8,2.3,7.9,5.6,7.9,11.9c0,6.8-1.6,10-6,11.8l-0.3,0.1
		c-2.2,0.9-4.4,1.3-10.4,2.1v0.5c11,0.3,16.4,3.4,16.1,9.2v8.6h-24.4v-6.3c0.3-4.4-3-6.3-10.1-6.2H726V197h-24v-47L747.8,150z"/>
        <polygon class="st2" points="1022.2,150 1022.2,160.4 981.2,160.4 981.2,168.8 1019.5,168.8 1019.5,177.5 981.2,177.5 981.2,186.6
		1023,186.6 1023,197 957,197 957,150 	"/>
        <path class="st2" d="M435.5,150l8.3,13.5c2.8,4.5,4,6.6,6.2,10.4c0.9,1.9,1.9,3.8,3,5.6h0.9l2-4c3-5.8,3.4-6.7,6.6-12l8.1-13.5H509
		v47h-23.7l0-14.6c0-0.6,0-1.2,0-1.7l0-0.4l0-0.4l0-0.2l0-0.4c0.1-2.8,0.4-5.8,1.2-12.8l0.5-5.5h-0.8l-3.1,5.4l-3.2,5.4l-6.7,10.7
		l-9.3,14.6h-20.6l-9.6-14.7l-6.9-10.6c-1.6-2.7-3.8-6.3-6.5-10.7h-0.8l0.7,5.5c0.9,7.8,1.2,11.1,1.3,14.1l0,0.4l0,0.4
		c0,0.1,0,0.1,0,0.2l0,0.4c0,0.2,0,0.4,0,0.6l0,14.5H398v-47H435.5z"/>
        <path class="st2" d="M942,150v31.5c0,7.1-0.5,8.5-3.6,10.8c-2.7,2-6.8,3.4-11.1,4c-2.8,0.4-8.9,0.6-17,0.6
		c-14.8,0-20.3-0.8-24.8-3.4c-4.2-2.5-5.4-5.5-5.4-13.4l0-0.5c0-0.8,0-1.5,0.1-2.6h22.3l0,3.6c0,4.9,1,5.6,7.8,5.6
		c3.9,0,5.8-0.4,6.8-1.4c0.8-0.9,0.8-0.9,0.9-4.7V150H942z"/>
        <polygon class="st2" points="1059.1,150 1059.1,167.8 1066.4,167.8 1089.4,150 1118.4,150 1086.7,173.1 1121,197 1091.5,197
		1066.5,178.5 1059.1,178.5 1059.1,197 1035,197 1035,150 	"/>
        <path class="st2" d="M565.1,150c11.9,0,18,0.4,23.2,1.6c8.7,1.9,13.7,5.2,15.6,10.1c0.9,2.2,1.2,5.6,1.2,12c0,10-0.9,13.2-5.3,16.7
		c-6,4.9-16.2,6.6-38.3,6.6c-14.1,0-21.1-0.6-26.9-2.5c-7-2.2-10.8-5.1-12.6-9.6c-0.7-1.9-0.9-4.1-0.9-8.4v-1
		c0-8.1,0.7-12.4,2.4-15.5c2-3.9,8.3-7,17.3-8.7c4.8-0.8,11.9-1.2,23-1.2L565.1,150z"/>
        <polygon class="st2" points="1192,150 1192,160.8 1167.8,160.8 1167.8,197 1143.7,197 1143.7,160.8 1121,160.8 1121,150 	"/>
        <path class="st2" d="M274.1,150c11.9,0,18,0.4,23.2,1.6c8.7,1.9,13.7,5.2,15.6,10.1c0.9,2.2,1.2,5.6,1.2,12c0,10-0.9,13.2-5.3,16.7
		c-6,4.9-16.2,6.6-38.3,6.6c-14.1,0-21.1-0.6-26.9-2.5c-7-2.2-10.8-5.1-12.6-9.6c-0.7-1.9-0.9-4.1-0.9-8.4l0-1
		c0-8.1,0.7-12.4,2.4-15.5c2-3.9,8.3-7,17.3-8.7c4.8-0.8,11.9-1.2,23-1.2L274.1,150z"/>
        <path class="st2" d="M833.1,150c11.9,0,18,0.4,23.2,1.6c8.7,1.9,13.7,5.2,15.6,10.1c0.9,2.2,1.2,5.6,1.2,12c0,10-0.9,13.2-5.3,16.7
		c-6,4.9-16.2,6.6-38.3,6.6c-14.1,0-21.1-0.6-26.9-2.5c-7-2.2-10.8-5.1-12.6-9.6c-0.7-1.9-0.9-4.1-0.9-8.4v-1
		c0-8.1,0.7-12.4,2.4-15.5c2-3.9,8.3-7,17.3-8.7c4.8-0.8,11.9-1.2,23-1.2L833.1,150z"/>
        <polygon class="st2" points="119,150 119,160.5 76.3,186 76.3,186.4 119,186.4 119,197 46,197 46,186.4 88.2,161 88.2,160.6
		48.7,160.6 48.7,150 	"/>
        <path class="st2" d="M384,150v31.5c0,7.1-0.5,8.5-3.6,10.8c-2.7,2-6.8,3.4-11.1,4c-2.8,0.4-8.9,0.6-17,0.6
		c-14.8,0-20.3-0.8-24.8-3.4c-4.2-2.5-5.4-5.5-5.4-13.4l0-0.5c0-0.8,0-1.5,0.1-2.6h22.3l0,3.6c0,4.9,1,5.6,7.8,5.6
		c3.9,0,5.8-0.4,6.8-1.4c0.8-0.9,0.8-0.9,0.9-4.7V150H384z"/>
        <path class="st2" d="M169.7,150l14.3,19.8c1.9,2.7,3.8,5.3,5.8,8c1.8,2.7,3.5,5.4,5.3,8h0.9l-0.3-4.2c-0.5-6-0.7-7.1-0.7-12.2
		l0-19.3H219v47h-40.9l-14.2-19.8c-1.9-2.7-3.9-5.5-5.8-8.2l-5.4-8.2h-1.1l0.4,4.4c0.5,6.2,0.7,7.4,0.7,12.6l0,19.3H129v-47H169.7z"
        />
        <path class="st2" d="M662.7,150c9.8,0,13.3,0.4,18.8,2.1c8.4,2.5,11.5,6.8,11.5,15.8c0,6.8-1.6,10.4-5.9,13.1
		c-2.8,1.8-8.4,3.2-14,3.7c-0.1,0-0.2,0-0.2,0l-0.1,0c0,0-0.1,0-0.1,0l-0.1,0l0,0l-0.2,0l-0.1,0c0,0,0,0-0.1,0l-0.1,0
		c-1.2,0-3.4,0.1-12.6,0.2l-3.9,0.1h-14.4v12H617v-47L662.7,150z"/>
        <path class="st1" d="M564.2,160.6l-0.5,0c-10.6,0-13.8,0.6-16,2.8c-1.5,1.5-1.9,3.8-1.9,10.7c0,11.3,1.1,12.2,17.1,12.2l1,0
		c9.5,0,12.5-0.7,14.5-3.3c1.4-1.8,1.8-3.9,1.8-10c0-6.4-0.3-7.8-1.6-9.5C576.8,161.3,573.6,160.6,564.2,160.6z"/>
        <path class="st1" d="M832.2,160.6l-0.5,0c-10.6,0-13.8,0.6-16,2.8c-1.5,1.5-1.9,3.8-1.9,10.7c0,11.3,1.1,12.2,17.1,12.2l1,0
		c9.5,0,12.5-0.7,14.5-3.3c1.4-1.8,1.8-3.9,1.8-10c0-6.4-0.3-7.8-1.6-9.5C844.8,161.3,841.6,160.6,832.2,160.6z"/>
        <path class="st1" d="M273.2,160.6l-0.5,0c-10.6,0-13.8,0.6-16,2.8c-1.5,1.5-1.9,3.8-1.9,10.7c0,11.3,1.1,12.2,17.1,12.2l1,0
		c9.5,0,12.5-0.7,14.5-3.3c1.4-1.8,1.8-3.9,1.8-10c0-6.4-0.3-7.8-1.6-9.5C285.8,161.3,282.6,160.6,273.2,160.6z"/>
        <path class="st1" d="M641.1,160.4v13.7l15.5,0c10.4,0,11.8-0.8,11.8-6.8c0-4-1.1-5.6-4.3-6.4c-0.5-0.1-0.9-0.2-1.3-0.2l-0.3,0
		c-1.1-0.2-2.4-0.2-5.4-0.2L641.1,160.4z"/>
        <path class="st1" d="M726,160.8v13.1h19c7.9,0,9.4-1.1,9.4-7.5c0-4.5-1.6-5.6-9.8-5.6l-0.4,0L726,160.8z"/>
</g>
</svg>
