<?xml version="1.0" encoding="UTF-8"?>
<svg width="1237px" height="228px" viewBox="0 0 1237 228" version="1.1" xmlns="http://www.w3.org/2000/svg" xmlns:xlink="http://www.w3.org/1999/xlink">
    <title>Combined Shape</title>
    <g id="Retailer-MVP" stroke="none" stroke-width="1" fill="none" fill-rule="evenodd">
        <path d="M319.445835,0.748737342 L329.068,47.6577373 L330.68888,39 L332.501596,39 L335.888765,75 L329.292,74.8597373 L329.291893,107.748737 L375.999893,107.748737 L376,101 L393,101 L392.999893,107.748737 L459.999893,107.748737 L460,98 L552,98 L551.999893,107.748737 L566.999893,107.748737 L567,98 L638.999893,97.9997373 L639,93 L709,93 L708.999893,104.999737 L716.999893,104.999737 L717,84.832 L711,85 L713.564146,49 L714.936402,49 L717,63.57 L717,49 L717.858,43.936 L715,44 L716.880374,23 L717.886695,23 L719.689,33.125 L725.131683,1 L728.182806,1 L732.552,31.765 L734.113305,23 L735.119626,23 L737,44 L734.281,43.939 L735,49 L735,63.566 L737.063598,49 L738.435854,49 L741,85 L735,84.832 L734.999893,99.9997373 L773.999893,99.9997373 L773.999357,95.2986616 C768.422963,94.2651217 764.2,89.3757238 764.2,83.5 C764.2,76.872583 769.572583,71.5 776.2,71.5 C776.811654,71.5 777.41262,71.5457622 777.999661,71.6340495 L777.999402,61.8498515 C774.57634,61.154715 772,58.1282257 772,54.5 C772,50.3578644 775.357864,47 779.5,47 C780.132675,47 780.747053,47.0783387 781.333964,47.2258451 L784.421122,29 L786.455204,29 L789.031059,47.1437914 C789.506085,47.0494642 789.997266,47 790.5,47 C794.642136,47 798,50.3578644 798,54.5 C798,58.1285803 795.423157,61.1553066 791.999594,61.8500552 L791.999335,71.6342004 C792.586695,71.5458143 793.187997,71.5 793.8,71.5 C800.427417,71.5 805.8,76.872583 805.8,83.5 C805.8,89.3760753 801.576532,94.2657068 795.999642,95.2988471 L795.999893,99.9997373 L852.999893,99.9997373 L853,93 L917,93 L916.999893,99.9997373 L956,100 L955.999893,107.748737 L976.15,107.748737 L976.150758,99 L991,84 L1005.84776,98.999 L1005.849,118.999737 L1056.999,118.999737 L1056.99916,93.775813 C1053.5234,91.673894 1051.2,87.8582767 1051.2,83.5 C1051.2,76.9393267 1056.46491,71.6083402 1063.00015,71.5016305 L1063,63 L1067.33618,40.8917571 L1068.26126,40.8917571 L1072,63 L1076.33618,40.8917571 L1077.26126,40.8917571 L1081,63 L1081,71.5027373 L1081.10497,71.5037999 C1087.59146,71.6656072 1092.8,76.9745433 1092.8,83.5 C1092.8,87.3662229 1090.97161,90.8054029 1088.13234,93.0000403 L1137,93 L1136.99989,102.999737 L1184,103 L1183.999,118.999737 L1237,119 L1237,228 L0,228 L0,119 L53.292,118.999737 L53.2928932,109.142136 L68.1421356,94.1421356 L82.9898932,109.141136 L82.991,118.999737 L100,118.999737 L100,110 L111,99 L122,110 L151,110 L162,99 L173,110 L173,118.999737 L197.26,118.999737 L206.568595,61.6066017 L215.155414,61.6066017 L222.786,118.999737 L228.292,118.999737 L228.292893,90.7487373 L241.01573,74.7487373 L284.722231,74.7487373 L297.112893,90.7487373 L303.291893,90.7487373 L303.292,74.8667373 L297,75 L300.38717,39 L302.199885,39 L303.706,47.0557373 L315.038657,0.748737342 L319.445835,0.748737342 Z M1220,136 L17,136 L16.999,211 L1220,211 L1220,136 Z M747.824927,150.000498 C760.2713,150.020842 765.938041,150.668279 771.085366,152.748126 C776.853659,155.002999 779,158.314843 779,164.656672 C779,171.491754 777.390244,174.662669 772.963415,176.494753 L772.645646,176.628845 C770.474271,177.521503 768.243335,177.943377 762.231707,178.749625 L762.231707,179.242879 C773.231707,179.524738 778.597561,182.625187 778.329268,188.403298 L778.329268,197 L753.914634,197 L753.914634,190.728636 C754.182927,186.35982 750.963415,184.386807 743.853659,184.527736 L726.012195,184.527736 L726.012195,197 L702,197 L702,150 L747.824927,150.000498 Z M1022.19018,150 L1022.19018,160.358321 L981.159509,160.358321 L981.159509,168.814093 L1019.4908,168.814093 L1019.4908,177.481259 L981.159509,177.481259 L981.159509,186.641679 L1023,186.641679 L1023,197 L957,197 L957,150 L1022.19018,150 Z M435.538182,150 L443.88,163.458771 C446.705455,167.968516 447.916364,170.082459 450.069091,173.887556 C451.010909,175.790105 451.952727,177.692654 453.029091,179.524738 L453.970909,179.524738 L455.989091,175.508246 C458.949091,169.65967 459.352727,168.814093 462.581818,163.529235 L470.654545,150 L509,150 L509,197 L485.32,197 L485.320513,182.442102 C485.321925,181.833427 485.326427,181.267467 485.336136,180.71667 L485.344428,180.305984 L485.354871,179.898401 L485.360684,179.703813 L485.374009,179.313863 C485.477941,176.511477 485.767611,173.484523 486.530909,166.488756 L487.069091,160.992504 L486.261818,160.992504 L483.167273,166.347826 L479.938182,171.703148 L473.210909,182.413793 L463.927273,197 L443.341818,197 L433.789091,182.343328 L426.927273,171.703148 C425.312727,168.955022 423.16,165.361319 420.469091,160.992504 L419.661818,160.992504 L420.334545,166.488756 C421.189998,174.329129 421.53554,177.585101 421.641343,180.57228 L421.653568,180.952494 L421.663313,181.331783 C421.664738,181.395032 421.666064,181.458325 421.667295,181.521704 L421.673656,181.910864 C421.676262,182.106334 421.678025,182.303402 421.679018,182.50326 L421.68,197 L398,197 L398,150 L435.538182,150 Z M942,150 L942,181.543155 C942,188.677083 941.463203,190.075893 938.376623,192.383929 C935.692641,194.342262 931.532468,195.811012 927.238095,196.370536 C924.419913,196.790179 918.380952,197 910.194805,197 C895.4329,197 889.930736,196.230655 885.367965,193.642857 C881.207792,191.125 880,188.11756 880,180.284226 L880.000621,179.783958 C880.003728,178.982556 880.022367,178.302579 880.134199,177.136905 L902.411255,177.136905 L902.411962,180.730162 C902.442053,185.621388 903.457589,186.299107 910.194805,186.299107 C914.08658,186.299107 915.965368,185.879464 917.038961,184.900298 C917.844156,183.991071 917.844156,183.991071 917.978355,180.214286 L917.978355,150 L942,150 Z M1059.09077,150 L1059.09077,167.827586 L1066.35837,167.827586 L1089.37246,150 L1118.44288,150 L1086.68075,173.112444 L1121,197 L1091.52582,197 L1066.49296,178.467766 L1059.09077,178.467766 L1059.09077,197 L1035,197 L1035,150 L1059.09077,150 Z M565.062549,150.000386 C576.947501,150.014851 583.044241,150.437249 588.227053,151.59675 C596.884058,153.54062 601.888889,156.803545 603.782609,161.732644 C604.729469,163.884786 605,167.286558 605,173.742984 C605,183.74003 604.05314,186.93353 599.724638,190.404727 C593.772947,195.264402 583.492754,197 561.444444,197 C547.376812,197 540.342995,196.375185 534.52657,194.500739 C527.492754,192.279173 523.705314,189.363368 521.94686,184.850812 C521.293076,182.971738 521.018486,180.703427 521.000907,176.415409 L521.000922,175.433616 C521.02927,167.372859 521.713742,162.985229 523.434783,159.927622 C525.463768,156.039882 531.68599,152.915805 540.748792,151.249631 C545.524712,150.432564 552.642669,150.016175 563.761607,150.000462 L565.062549,150.000386 Z M1192,150 L1192,160.781109 L1167.79545,160.781109 L1167.79545,197 L1143.72538,197 L1143.72538,160.781109 L1121,160.781109 L1121,150 L1192,150 Z M274.062549,150.000386 C285.947501,150.014851 292.044241,150.437249 297.227053,151.59675 C305.884058,153.54062 310.888889,156.803545 312.782609,161.732644 C313.729469,163.884786 314,167.286558 314,173.742984 C314,183.74003 313.05314,186.93353 308.724638,190.404727 C302.772947,195.264402 292.492754,197 270.444444,197 C256.376812,197 249.342995,196.375185 243.52657,194.500739 C236.492754,192.279173 232.705314,189.363368 230.94686,184.850812 C230.293076,182.971738 230.018486,180.703427 230.000907,176.415409 L230.000922,175.433616 C230.02927,167.372859 230.713742,162.985229 232.434783,159.927622 C234.463768,156.039882 240.68599,152.915805 249.748792,151.249631 C254.524712,150.432564 261.642669,150.016175 272.761607,150.000462 L274.062549,150.000386 Z M833.062549,150.000386 C844.947501,150.014851 851.044241,150.437249 856.227053,151.59675 C864.884058,153.54062 869.888889,156.803545 871.782609,161.732644 C872.729469,163.884786 873,167.286558 873,173.742984 C873,183.74003 872.05314,186.93353 867.724638,190.404727 C861.772947,195.264402 851.492754,197 829.444444,197 C815.376812,197 808.342995,196.375185 802.52657,194.500739 C795.492754,192.279173 791.705314,189.363368 789.94686,184.850812 C789.293076,182.971738 789.018486,180.703427 789.000907,176.415409 L789.000922,175.433616 C789.02927,167.372859 789.713742,162.985229 791.434783,159.927622 C793.463768,156.039882 799.68599,152.915805 808.748792,151.249631 C813.524712,150.432564 820.642669,150.016175 831.761607,150.000462 L833.062549,150.000386 Z M119,150 L119,160.49925 L76.2715596,186.007496 L76.2715596,186.430285 L119,186.430285 L119,197 L46,197 L46,186.35982 L88.1926606,160.992504 L88.1926606,160.569715 L48.6788991,160.569715 L48.6788991,150 L119,150 Z M384,150 L384,181.543155 C384,188.677083 383.463203,190.075893 380.376623,192.383929 C377.692641,194.342262 373.532468,195.811012 369.238095,196.370536 C366.419913,196.790179 360.380952,197 352.194805,197 C337.4329,197 331.930736,196.230655 327.367965,193.642857 C323.207792,191.125 322,188.11756 322,180.284226 L322.000621,179.783958 C322.003728,178.982556 322.022367,178.302579 322.134199,177.136905 L344.411255,177.136905 L344.411962,180.730162 C344.442053,185.621388 345.457589,186.299107 352.194805,186.299107 C356.08658,186.299107 357.965368,185.879464 359.038961,184.900298 C359.844156,183.991071 359.844156,183.991071 359.978355,180.214286 L359.978355,150 L384,150 Z M169.675676,150 L184,169.8006 C185.891892,172.478261 187.783784,175.085457 189.810811,177.763118 C191.567568,180.44078 193.324324,183.118441 195.081081,185.725637 L196.027027,185.725637 L195.756757,181.497751 C195.232596,175.484758 195.089643,174.44118 195.081461,169.307623 L195.081081,150 L219,150 L219,197 L178.054054,197 L163.864865,177.1994 C161.972973,174.451274 159.945946,171.703148 158.054054,169.025487 L152.648649,160.781109 L151.567568,160.781109 L151.972973,165.149925 C152.498069,171.37901 152.640596,172.55442 152.648311,177.719574 L152.648649,197 L129,197 L129,150 L169.675676,150 Z M662.703921,150.000369 C672.513479,150.013532 675.991332,150.384946 681.546099,152.113943 C689.900709,154.650675 693,158.878561 693,167.898051 C693,174.733133 691.382979,178.256372 687.070922,181.004498 C684.241135,182.836582 678.716312,184.245877 673.056738,184.668666 C672.978809,184.672062 672.904636,184.675294 672.832695,184.678386 L672.726267,184.682922 C672.691223,184.684401 672.656545,184.685848 672.622046,184.687266 L672.518887,184.691436 L672.49313,184.692453 L672.31119,184.699323 L672.199437,184.703243 C672.180523,184.703887 672.161447,184.704525 672.142183,184.70516 L672.024105,184.70892 C670.796135,184.746693 668.661513,184.771777 659.446809,184.88006 L655.539007,184.950525 L641.120567,184.950525 L641.120567,197 L617,197 L617,150 L662.703921,150.000369 Z M564.217723,160.622369 L563.743961,160.621861 C553.193237,160.621861 549.94686,161.177253 547.782609,163.398818 C546.294686,164.926145 545.888889,167.217134 545.888889,174.090103 C545.888889,185.430502 546.94948,186.292373 562.982969,186.308476 L563.945969,186.308168 C573.447903,186.285814 576.491663,185.571925 578.487923,182.976366 C579.84058,181.171344 580.246377,179.088626 580.246377,172.979321 C580.246377,166.592319 579.975845,165.134417 578.623188,163.468242 C576.760513,161.283096 573.589167,160.642776 564.217723,160.622369 Z M832.217723,160.622369 L831.743961,160.621861 C821.193237,160.621861 817.94686,161.177253 815.782609,163.398818 C814.294686,164.926145 813.888889,167.217134 813.888889,174.090103 C813.888889,185.430502 814.94948,186.292373 830.982969,186.308476 L831.945969,186.308168 C841.447903,186.285814 844.491663,185.571925 846.487923,182.976366 C847.84058,181.171344 848.246377,179.088626 848.246377,172.979321 C848.246377,166.592319 847.975845,165.134417 846.623188,163.468242 C844.760513,161.283096 841.589167,160.642776 832.217723,160.622369 Z M273.217723,160.622369 L272.743961,160.621861 C262.193237,160.621861 258.94686,161.177253 256.782609,163.398818 C255.294686,164.926145 254.888889,167.217134 254.888889,174.090103 C254.888889,185.430502 255.94948,186.292373 271.982969,186.308476 L272.945969,186.308168 C282.447903,186.285814 285.491663,185.571925 287.487923,182.976366 C288.84058,181.171344 289.246377,179.088626 289.246377,172.979321 C289.246377,166.592319 288.975845,165.134417 287.623188,163.468242 C285.760513,161.283096 282.589167,160.642776 273.217723,160.622369 Z M641.120567,160.358321 L641.120567,174.098951 L656.589338,174.098621 C667.024428,174.079981 668.340426,173.252544 668.340426,167.263868 C668.340426,163.247376 667.262411,161.626687 664.028369,160.851574 C663.56192,160.754008 663.167233,160.675204 662.774754,160.611699 L662.512665,160.571591 C661.371749,160.407281 660.120268,160.364227 657.081309,160.358915 L641.120567,160.358321 Z M726.012195,160.781109 L726.012195,173.887556 L745.060976,173.887556 C752.97561,173.887556 754.45122,172.76012 754.45122,166.418291 C754.45122,161.904401 752.808391,160.842309 744.616549,160.783738 L744.239665,160.781758 L726.012195,160.781109 Z" id="Combined-Shape" fill="#FFFFFF"></path>
    </g>
</svg>