<?xml version="1.0" encoding="UTF-8"?>
<svg width="24px" height="24px" viewBox="0 0 24 24" version="1.1" xmlns="http://www.w3.org/2000/svg" xmlns:xlink="http://www.w3.org/1999/xlink">
    <title>ADRESA</title>
    <g id="Page-1" stroke="none" stroke-width="1" fill="none" fill-rule="evenodd">
        <g id="ZN-2-Copy-2" transform="translate(-1098.000000, -639.000000)">
            <g id="ADRESA" transform="translate(1098.000000, 639.000000)">
                <polygon id="Path" points="0 0 24 0 24 24 0 24"></polygon>
                <path d="M12,18.485 L16.243,14.243 C18.5858537,11.8997494 18.5856393,8.10094425 16.2425209,5.75795819 C13.8994026,3.41497214 10.1005974,3.41497214 7.75747909,5.75795819 C5.41436074,8.10094425 5.41414625,11.8997494 7.757,14.243 L12,18.485 Z M17.657,15.657 L12,21.314 L6.343,15.657 C3.21892411,12.5327631 3.21901112,7.46751823 6.34319433,4.34338867 C9.46737755,1.21925912 14.5326224,1.21925912 17.6568057,4.34338867 C20.7809889,7.46751823 20.7810759,12.5327631 17.657,15.657 L17.657,15.657 Z M5,22 L19,22 L19,24 L5,24 L5,22 Z" id="Shape" fill="#888888" fill-rule="nonzero"></path>
            </g>
        </g>
    </g>
</svg>